<?xml version="1.0" encoding="UTF-8"?>
<svg id="Layer_2" data-name="Layer 2" xmlns="http://www.w3.org/2000/svg" viewBox="0 0 57.5 60">
  <defs>
    <style>
      .cls-1 {
        fill: #ed3424;
      }

      .cls-1, .cls-2, .cls-3, .cls-4 {
        fill-rule: evenodd;
        stroke-width: 0px;
      }

      .cls-2 {
        fill: #f7981d;
      }

      .cls-3 {
        fill: #fff;
      }

      .cls-4 {
        fill: #005f33;
      }
    </style>
  </defs>
  <g id="Layer_1-2" data-name="Layer 1">
    <g>
      <path class="cls-4" d="m0,3.66v52.74c0,1.86,1.69,3.6,3.63,3.6h50.27c.27,0,.56-.03.78-.1.55-.17.77-.26,1.24-.57.52-.34.95-.91,1.23-1.46.19-.37.35-.92.35-1.47V3.63c0-.3-.04-.54-.1-.78-.14-.54-.39-1.08-.76-1.49-.44-.5-.66-.68-1.29-1-.33-.17-.96-.36-1.46-.36H3.66c-.78,0-1.74.36-2.32.87-.05.04-.06.06-.12.1-.07.05-.07.06-.13.11-.08.08-.12.15-.21.23l-.38.53c-.07.11-.1.19-.16.31-.18.36-.35.97-.35,1.49Z"/>
      <path class="cls-3" d="m48.34,6.85c.82,0,1.56.33,2.09.87.54.54.87,1.27.87,2.09s-.33,1.56-.87,2.09c-.54.54-1.27.87-2.09.87s-1.56-.33-2.09-.87-.87-1.27-.87-2.09.33-1.56.87-2.09c.54-.54,1.27-.87,2.09-.87Z"/>
      <path class="cls-4" d="m50.04,8.1c-.44-.44-1.04-.7-1.7-.7s-1.27.27-1.7.7c-.44.44-.7,1.04-.7,1.7s.27,1.27.7,1.7c.44.44,1.04.7,1.7.7s1.27-.27,1.7-.7c.44-.44.7-1.04.7-1.7s-.27-1.27-.7-1.7Z"/>
      <path class="cls-3" d="m46.98,11.1v-2.97h1.29c.16,0,.29,0,.41.02.12.01.18.03.25.06.08.03.14.07.21.12.06.05.11.11.16.18.05.07.08.15.1.23.02.08.03.17.03.26,0,.12-.02.22-.05.32-.03.1-.09.18-.15.26-.09.11-.25.21-.39.25.09.05.25.3.31.39.06.08.12.18.19.29l.4.65h-.75l-.63-.96c-.1-.14-.17-.21-.3-.25-.04,0-.08-.02-.13-.02h-.33s0,1.22,0,1.22h-.64v-.05Z"/>
      <path class="cls-3" d="m20.45,32.63c-.19,1.2-.39,2.64-.61,3.79-.35,1.8-.75,2.97-1.79,4.1-.87.94-2.37,1.66-4.22,1.66-3.16,0-5.81-2.56-5.78-5.96,0-.88.19-1.8.32-2.63l2.06-12.61c.14-.86.28-1.66.41-2.54.13-.82.3-1.69.42-2.51.13-.86.27-1.7.41-2.54.14-.83.25-1.71.44-2.51.75-3.17,3.35-5.09,6.5-5.23,1.89-.08,3.33.42,4.59,1.29,2.05,1.41,2.43,3.29,3.19,5.61.24.73.5,1.47.73,2.21.22.74.48,1.48.72,2.22l.72,2.19c.08-.03.04.02.08-.11.02-.05.03-.1.04-.15.03-.11.05-.17.08-.27.06-.19.11-.37.18-.57.12-.34.24-.74.35-1.1.23-.75.46-1.52.7-2.24.25-.75.46-1.49.7-2.24.23-.72.43-1.49.72-2.2.58-1.44,1.51-2.57,2.56-3.32,1.29-.91,2.61-1.35,4.56-1.29,1.67.05,3.23.86,4.21,1.66,1,.82,1.85,1.98,2.23,3.62.09.4.16.85.23,1.26l.65,3.73c.29,1.66.55,3.35.87,5,.62,3.29,1.12,6.74,1.74,10,.16.83.27,1.68.44,2.5.17.81.31,1.75.36,2.59.06.85-.14,1.87-.42,2.53-.29.69-.72,1.35-1.14,1.78-1.07,1.06-2.35,1.76-4.03,1.84-1.92.09-3.31-.62-4.31-1.53-.97-.89-1.57-2.27-1.9-3.95-.11-.56-.78-4.89-.85-5-.11.05-.14.32-.17.43-.04.13-.09.29-.14.44-.46,1.55-1.49,5.01-1.97,6.16-1,2.4-3.27,3.52-5.86,3.45-2.56-.07-4.48-1.5-5.48-3.83-.54-1.25-1.23-3.73-1.74-5.25l-.58-1.71s0-.01-.02-.02l-.23,1.26Z"/>
      <path class="cls-1" d="m20.21,24.94c.14.35.26.82.38,1.21.13.4.25.8.39,1.21.79,2.39,1.52,4.85,2.31,7.25.53,1.61.94,3.38,1.87,4.52,1.58,1.95,5.12,2.1,6.86.42.55-.53.89-1.1,1.2-1.99.56-1.59,1.02-3.24,1.52-4.87,1.01-3.27,2.02-6.47,3.04-9.72,1.01-3.23,2.07-6.45,3.12-9.64l1.19-3.6c.07-.2.13-.4.2-.6.05-.14.08-.15,0-.25-.5-.56-1.37-1.13-2.18-1.42-.84-.3-1.84-.42-2.83-.29-1.85.24-3.1,1.36-3.87,2.5-.46.68-.7,1.38-.97,2.22-.25.8-.51,1.64-.76,2.43l-2.27,7.25c-.09.3-.71,2.32-.77,2.42-.02-.02-.02-.01-.04-.05l-1.46-4.45c-.43-1.4-1.01-3.07-1.48-4.51-.25-.77-.49-1.5-.74-2.27-.24-.74-.48-1.54-.74-2.25-1.19-3.22-5.13-4.15-7.97-2.72-1.29.65-2.24,1.76-2.64,3.38-.2.81-.32,1.72-.45,2.56-.14.86-.28,1.71-.42,2.56-.29,1.72-.56,3.44-.84,5.18l-2.1,12.89c-.14.84-.32,1.85-.17,2.71.15.89.45,1.49.92,2.07,1.53,1.88,4.61,2.17,6.36.51,1.07-1.01,1.41-2.52,1.69-4.33.13-.87.26-1.73.41-2.59.15-.84.3-1.74.41-2.59.11-.85.28-1.73.41-2.57.07-.44.15-.9.21-1.31.03-.2.16-1.21.23-1.29Z"/>
      <path class="cls-2" d="m43.09,10.04c.14.11.32.67.39.9.17.55.49,2.61.6,3.25,1.01,5.82,2,11.67,3.04,17.47.17.94.67,3.61.69,4.41.11,3.2-2.66,5.14-5.53,4.51-1.36-.3-2.31-1.22-2.81-2.32-.52-1.16-.73-2.79-.95-4.17-.23-1.48-.49-2.94-.73-4.4-.05-.31-.37-2.04-.33-2.22l.62-1.93c.83-2.62,1.7-5.16,2.5-7.76.4-1.29.84-2.6,1.25-3.89.07-.21,1.19-3.76,1.25-3.86Z"/>
      <path class="cls-3" d="m46.59,47.39c.61,0,1.53.1,1.98-.19.4-.25.69-.9.38-1.5-.34-.67-.92-.64-1.49-.64h-4.32c-.35,0-.64-.03-.95.11-.24.11-.42.3-.53.54-.13.27-.14.59-.05.89.31,1.07,1.65.73,2.42.79.04.33,0,.82,0,1.17,0,.63-.03,5.58.01,5.85.09.58.6,1.06,1.26,1.07.67,0,1.17-.5,1.25-1.11.04-.31,0-.83,0-1.17,0-.59-.03-5.6.01-5.82Z"/>
      <path class="cls-3" d="m38.13,51.17c.33-.11.56-.19.8-.31,1.48-.75,1.78-2.32,1.19-3.78-.33-.83-1-1.46-1.93-1.79-.6-.21-1.14-.22-1.81-.22s-1.36,0-2.03,0c-1.74,0-1.48,1.48-1.48,2.61v6.1c0,.78.08,1.11.56,1.47.43.32,1.13.3,1.52-.04.5-.43.48-.76.48-1.56,0-.68,0-1.36,0-2.04l2.64,3.21c.25.3.6.74,1.27.66.53-.07.94-.43,1.08-.87.21-.67-.14-1.09-.44-1.4l-1.85-2.04Z"/>
      <path class="cls-4" d="m35.43,47.42c.3-.02,1.4-.03,1.64.04,1,.29.97,1.62,0,1.9-.21.06-1.38.06-1.64.03v-1.97Z"/>
      <path class="cls-3" d="m28.41,53.47c.05.27.21.69.3.97.13.4.2.59.45.81.54.47,1.45.23,1.78-.2.48-.61.15-1.29-.09-1.94-.23-.61-.45-1.21-.67-1.83-.26-.71-1.77-4.98-2.05-5.46-.7-1.2-2.44-1.24-3.16.09-.15.27-.56,1.43-.7,1.8l-2.05,5.46c-.26.7-.5,1.3.02,1.91.38.45,1.29.59,1.8.13.26-.24.32-.43.44-.83.02-.07.23-.91.32-.93h3.6Z"/>
      <path class="cls-4" d="m25.51,51.16c0-.1.83-2.53,1-3.06,0-.02.03-.09.04-.1.05-.1.01-.03.05-.07l1.02,3.24h-2.11Z"/>
      <path class="cls-3" d="m14.57,50.97c-.06-.09-1.19-3.95-1.38-4.61-.17-.58-.39-.94-.79-1.19-.45-.28-1.13-.31-1.64-.07-.41.2-.77.57-.88,1.1-.12.54-.19,1.14-.29,1.69l-.86,5.11c-.09.55-.29,1.17-.09,1.7.16.44.59.78,1.2.77,1.34,0,1.28-1.36,1.45-2.53.17-1.16.31-2.34.5-3.47l.06.1s.02.08.03.11l.93,3.19c.15.53.32,1.19.5,1.7.19.52.58.9,1.26.91.78,0,1.07-.31,1.26-.93.17-.56.33-1.12.49-1.68.23-.78.84-2.74.99-3.39.05.07.05.14.07.23.13.93.63,4.57.76,4.95.37,1.11,1.97,1.06,2.37.02.19-.49-.01-1.2-.1-1.71-.19-1.13-.38-2.25-.57-3.4-.13-.8-.43-2.75-.58-3.4-.29-1.25-1.75-1.49-2.54-1-.43.27-.59.64-.77,1.24-.1.33-1.31,4.4-1.38,4.55Z"/>
      <path class="cls-4" d="m47.59,8.74h.87c.43,0,.42.64,0,.64h-.87v-.64Z"/>
    </g>
  </g>
</svg>